<svg width="20" height="20" viewBox="0 0 20 20" fill="none" xmlns="http://www.w3.org/2000/svg">
<path d="M16.6427 15.3917L16.0344 14.0583L15.4427 15.3917L14.1094 15.9833L15.4427 16.5833L16.0344 17.9167L16.6427 16.5833L17.9594 15.9833L16.6427 15.3917Z" fill="#797A7B" stroke="#797A7B" stroke-width="0.2"/>
<path d="M3.66771 3.06665L3.38437 1.94165L3.10937 3.06665L1.98438 3.34998L3.10937 3.63332L3.38437 4.75832L3.66771 3.63332L4.79271 3.34998L3.66771 3.06665Z" fill="#797A7B" stroke="#797A7B" stroke-width="0.2"/>
<path d="M9.91706 2.54175H9.89206L4.02539 4.73341V6.80841L5.27539 7.48341V5.60841L9.89206 3.87508L14.5087 5.60841V9.21675C14.5337 12.1751 12.6921 14.8751 9.93372 15.9417L9.89206 15.9584L9.85039 15.9417C7.08372 14.8834 5.24206 12.1751 5.27539 9.20841V9.00841L4.02539 8.33341V9.21675C4.02539 12.9334 6.54206 16.3917 9.87539 17.2584H9.89206H9.90872C13.2421 16.4001 15.7587 12.9417 15.7587 9.21675V4.73341L9.91706 2.54175Z" fill="#797A7B" stroke="#797A7B" stroke-width="0.2"/>
</svg>
