<svg width="20" height="20" viewBox="0 0 20 20" fill="none" xmlns="http://www.w3.org/2000/svg">
<path d="M13.8762 7.24991H15.8428C16.4345 7.24991 16.9095 6.76658 16.9095 6.18324V5.99158H19.1678V4.74158H16.8762C16.7845 4.24158 16.3678 3.85824 15.8428 3.85824H13.9762C13.8928 3.85824 13.8178 3.83324 13.7595 3.78324L12.5012 2.75824C12.1928 2.50824 11.8012 2.36658 11.4012 2.36658H8.57617C8.17617 2.36658 7.78451 2.50824 7.47617 2.75824L6.21784 3.78324C6.15117 3.83324 6.07617 3.85824 5.99284 3.85824H4.12617C3.60117 3.85824 3.18451 4.24158 3.09284 4.74158H0.834505V5.99158H3.05117V6.17491C3.05117 6.76658 3.53451 7.24158 4.11784 7.24158H6.08451C6.30117 7.24158 6.49284 7.35824 6.59284 7.54991L6.71784 7.79991C6.00117 8.24158 5.45117 8.94158 5.22617 9.79991L4.45117 12.8582C2.92617 12.3166 2.07617 11.6332 2.07617 11.1582C2.07617 10.6832 2.91784 10.0082 4.41784 9.46658L4.75117 8.04158C2.37617 8.72491 0.826172 9.86658 0.826172 11.1582C0.826172 12.3332 2.11784 13.3916 4.14284 14.0832L3.63451 16.0832C3.53451 16.4666 3.62617 16.8582 3.85951 17.1666C4.09284 17.4749 4.45951 17.6499 4.85117 17.6499H15.1178C15.5095 17.6499 15.8762 17.4749 16.1178 17.1666C16.3595 16.8582 16.4428 16.4582 16.3428 16.0832L15.8345 14.0666C17.8262 13.3666 19.0928 12.3249 19.0928 11.1582C19.0928 9.87491 17.5595 8.74158 15.2178 8.05824L15.5595 9.48324C17.0262 10.0166 17.8512 10.6916 17.8512 11.1582C17.8512 11.6249 17.0178 12.3082 15.5345 12.8416L14.7678 9.80824C14.5512 8.93324 13.9845 8.22491 13.2595 7.79158L13.3762 7.57491C13.4762 7.38324 13.6762 7.25824 13.8928 7.25824L13.8762 7.24991ZM15.1345 16.3916C15.1345 16.3916 15.1345 16.3916 15.1262 16.3916L4.85117 16.3749L5.35117 14.4166C6.70951 14.7499 8.28451 14.9416 9.96784 14.9416C11.6512 14.9416 13.2678 14.7416 14.6345 14.3999L15.1345 16.3832V16.3916ZM13.5428 10.1082L14.3262 13.1999C13.1262 13.4999 11.6678 13.6999 9.95951 13.6999C8.25117 13.6999 6.83451 13.4999 5.65117 13.2166L6.4345 10.1166C6.66784 9.19991 7.49284 8.56658 8.42617 8.56658H11.5428C12.4845 8.56658 13.3095 9.19991 13.5345 10.1166L13.5428 10.1082ZM12.2428 6.99158L12.0678 7.33324H11.8428C11.7428 7.32491 11.6428 7.30824 11.5428 7.30824H8.42617C8.24284 7.30824 8.06784 7.32491 7.89284 7.34991L7.70117 6.97491C7.38451 6.36658 6.76784 5.99158 6.08451 5.99158H4.29284V5.10824H5.97617C6.34284 5.10824 6.70117 4.98324 6.98451 4.74991L8.24284 3.72491C8.33451 3.64991 8.44284 3.61658 8.55951 3.61658H11.3845C11.5012 3.61658 11.6095 3.65824 11.7012 3.72491L12.9595 4.74991C13.2428 4.98324 13.6012 5.10824 13.9678 5.10824H15.6512V5.99991H13.8678C13.1762 5.99991 12.5595 6.38324 12.2428 6.99158Z" fill="#797A7B" stroke="#797A7B" stroke-width="0.2"/>
</svg>
