<svg width="14" height="16" viewBox="0 0 14 16" fill="none" xmlns="http://www.w3.org/2000/svg">
<path d="M7.0151 6.19427C7.84844 6.19427 8.54844 5.91927 9.08177 5.39427C9.6151 4.86094 9.88177 4.16927 9.88177 3.3276C9.88177 2.48594 9.6151 1.79427 9.08177 1.26094C8.54844 0.727604 7.85677 0.460938 7.0151 0.460938C6.17344 0.460938 5.48177 0.735938 4.94844 1.26094C4.4151 1.78594 4.14844 2.48594 4.14844 3.3276C4.14844 4.16927 4.4151 4.86094 4.94844 5.39427C5.48177 5.9276 6.17344 6.19427 7.0151 6.19427ZM5.85677 2.16094C6.1651 1.8526 6.54844 1.7026 7.0151 1.7026C7.48177 1.7026 7.87344 1.8526 8.17344 2.16094C8.47344 2.46927 8.63177 2.8526 8.63177 3.31927C8.63177 3.78594 8.47344 4.1776 8.17344 4.4776C7.8651 4.78594 7.48177 4.93594 7.0151 4.93594C6.54844 4.93594 6.15677 4.78594 5.85677 4.4776C5.55677 4.16927 5.39844 3.78594 5.39844 3.31927C5.39844 2.8526 5.55677 2.46094 5.85677 2.16094Z" fill="#797A7B" stroke="#797A7B" stroke-width="0.2"/>
<path d="M12.6943 9.29557C12.4526 8.95391 12.1276 8.68724 11.7359 8.50391C11.0943 8.22057 10.3776 7.95391 9.59427 7.72891C8.81094 7.49557 7.94427 7.37891 7.01094 7.37891C6.0776 7.37891 5.21094 7.49557 4.41927 7.72891C3.6276 7.96224 2.91094 8.22057 2.26927 8.51224C1.88594 8.68724 1.56927 8.95391 1.3276 9.30391C1.08594 9.65391 0.960938 10.0706 0.960938 10.5539V14.8789L2.21094 15.5539V10.5539C2.21094 10.3539 2.26094 10.1706 2.36927 10.0122C2.4776 9.84557 2.61094 9.72057 2.77761 9.64557C3.30261 9.38724 3.9276 9.15391 4.6276 8.94557C5.3276 8.74557 6.1276 8.63724 7.01094 8.63724C7.29427 8.63724 7.60261 8.65391 7.91094 8.68724C8.19427 8.71224 8.48594 8.75391 8.78594 8.81224L7.48594 11.6956H5.31927C4.77761 11.6956 4.31927 11.8872 3.94427 12.2539C3.56927 12.6289 3.38594 13.0872 3.38594 13.6289C3.38594 14.1706 3.5776 14.6289 3.94427 15.0039C4.31927 15.3789 4.77761 15.5622 5.31927 15.5622H11.8609C12.1776 15.5622 12.4526 15.4456 12.6943 15.2039C12.9276 14.9706 13.0526 14.6872 13.0526 14.3706V10.5539C13.0526 10.0706 12.9276 9.64557 12.6859 9.30391L12.6943 9.29557ZM6.30261 14.2956H5.33594C5.15261 14.2956 4.99427 14.2289 4.86094 14.0872C4.71927 13.9456 4.65261 13.7956 4.65261 13.6122C4.65261 13.4289 4.71927 13.2706 4.86094 13.1372C5.00261 12.9956 5.15261 12.9289 5.33594 12.9289H6.93594L6.30261 14.2956ZM11.8109 14.2956H7.66927L10.0193 9.12891C10.2609 9.22057 10.4859 9.30391 10.6943 9.38724C10.9109 9.47891 11.0859 9.55391 11.2359 9.62891C11.4026 9.71224 11.5359 9.83724 11.6526 10.0039C11.7609 10.1706 11.8193 10.3539 11.8193 10.5456V14.2956H11.8109Z" fill="#797A7B" stroke="#797A7B" stroke-width="0.2"/>
</svg>
