<svg width="96" height="22" viewBox="0 0 96 22" fill="none" xmlns="http://www.w3.org/2000/svg">
<g clip-path="url(#clip0_7351_18910)">
<path d="M45.1463 11.2109L50.7566 21.3487H56.2439L45.1463 1.26721L34.0486 21.3487H39.5667L45.1463 11.2109Z" fill="black"/>
<path d="M27.7587 16.6526L27.7723 1.26721H23.4794V21.3487H31.7527L34.0486 16.6526H27.7587Z" fill="black"/>
<path d="M10.811 0.210459C8.72001 0.207563 6.67512 0.824973 4.9351 1.98457C3.19508 3.14417 1.83812 4.79384 1.03592 6.72485C0.233715 8.65586 0.0223198 10.7814 0.42848 12.8326C0.834641 14.8838 1.8401 16.7684 3.31765 18.248C4.79519 19.7276 6.67842 20.7357 8.72904 21.1447C10.7797 21.5537 12.9055 21.3453 14.8377 20.5457C16.7698 19.7462 18.4213 18.3915 19.5833 16.6531C20.7453 14.9147 21.3656 12.8707 21.3656 10.7797C21.3656 7.97907 20.2541 5.29297 18.2751 3.31128C16.2962 1.32959 13.6116 0.214338 10.811 0.210459V0.210459ZM10.811 16.4742C9.68414 16.477 8.58173 16.1455 7.64335 15.5216C6.70498 14.8976 5.97282 14.0093 5.53957 12.969C5.10633 11.9287 4.99147 10.7833 5.20953 9.67772C5.4276 8.57214 5.96879 7.55611 6.76459 6.75826C7.56039 5.9604 8.57503 5.4166 9.68005 5.19569C10.7851 4.97478 11.9308 5.08669 12.9722 5.51726C14.0136 5.94782 14.9038 6.67769 15.5301 7.61446C16.1565 8.55123 16.4909 9.65278 16.4909 10.7797C16.487 12.2887 15.8858 13.7349 14.8187 14.802C13.7516 15.8691 12.3055 16.4703 10.7964 16.4742H10.811Z" fill="black"/>
<path d="M77.2541 3.09063C75.3545 2.06262 73.2637 1.54069 71.149 1.56663C68.5857 1.56663 67.0146 3.21256 67.0146 5.07184C67.0146 7.55597 68.2549 8.28749 72.4169 9.84197C76.5788 11.3965 78.4393 12.89 78.4393 15.938C78.4393 19.9461 75.6141 21.3482 72.5133 21.3482C69.6449 21.3737 66.8666 20.2412 64.6993 18.163L65.3608 17.02C67.3375 18.9201 69.8667 19.9696 72.4858 19.9766C75.5177 19.9766 77.0336 18.5898 77.0336 16.1056C77.0336 13.6215 75.8898 12.6461 71.5211 11.0002C67.5934 9.55241 65.6778 8.68373 65.6778 5.14804C65.6778 2.29815 67.8415 0.210268 71.1903 0.210268C73.4645 0.203277 75.7094 0.776975 77.7502 1.88667L77.2541 3.09063Z" fill="black"/>
<path d="M82.8053 21.3487V20.0647H88.8317V3.10366C86.9588 3.91733 85.0069 4.54753 83.0052 4.9849L82.667 3.99949C84.9473 3.36612 87.1333 2.44767 89.1699 1.26721H90.3229V20.0647H95.35V21.3487H82.8053Z" fill="black"/>
</g>
<defs>
<clipPath id="clip0_7351_18910">
<rect width="95.5456" height="21.1384" fill="white" transform="translate(0.227173)"/>
</clipPath>
</defs>
</svg>
