<svg width="130" height="32" viewBox="0 0 130 32" fill="none" xmlns="http://www.w3.org/2000/svg">
<path d="M41.8818 15.1065L47.5268 25.4388H52.5145L41.8915 6.03016L31.2201 25.4388L36.1208 25.429L41.8818 15.1065Z" fill="black"/>
<path d="M10.2249 5.66213C4.58719 5.65161 1.77354e-05 10.2702 1.77354e-05 15.983C-0.010384 21.6852 4.55599 26.3249 10.2041 26.3249C15.8419 26.3354 20.4291 21.7168 20.4291 16.004C20.4291 10.3018 15.8627 5.67265 10.2249 5.66213ZM10.2041 21.5064C7.19803 21.5064 4.76402 19.034 4.76402 15.9935C4.77442 12.953 7.20843 10.4912 10.2145 10.4912C13.2206 10.4912 15.6547 12.9635 15.6547 16.004C15.6547 19.0445 13.2102 21.5064 10.2041 21.5064Z" fill="black"/>
<path d="M26.506 20.9327L26.5253 6.20451H22.0693L22.1243 20.1603L22.051 25.4365H29.3382L31.89 20.9327H26.506Z" fill="black"/>
<path d="M63.4176 7.87465C62.1854 7.87465 61.1897 8.18518 60.4306 8.80624C59.6715 9.41745 59.292 10.211 59.292 11.187C59.292 12.1531 59.6469 12.9023 60.3567 13.4346C61.0665 13.967 62.5205 14.5979 64.7189 15.3274C66.9172 16.0569 68.46 16.8159 69.3473 17.6046C70.2444 18.3834 70.6929 19.5368 70.6929 21.0648C70.6929 22.5928 70.1359 23.7511 69.0219 24.5398C67.908 25.3186 66.5624 25.7079 64.9851 25.7079C61.791 25.7079 59.1293 24.7517 57 22.8392L57.6654 21.8041C59.6863 23.5786 62.0473 24.4658 64.7485 24.4658C67.7749 24.4658 69.2881 23.3075 69.2881 20.9908C69.2881 19.8572 68.9184 18.9946 68.1791 18.4031C67.4496 17.8018 66.2321 17.2201 64.5267 16.6582C62.8311 16.0963 61.6925 15.6971 61.1108 15.4605C60.5292 15.214 59.9525 14.8887 59.3807 14.4845C58.8188 14.0803 58.4294 13.617 58.2125 13.0945C58.0055 12.5622 57.902 11.9017 57.902 11.113C57.902 9.80191 58.4048 8.73231 59.4103 7.90423C60.4257 7.07615 61.7615 6.66211 63.4176 6.66211C65.7934 6.67197 67.9721 7.17966 69.9535 8.18518L69.5099 9.26465C67.6566 8.33799 65.6258 7.87465 63.4176 7.87465Z" fill="black"/>
<path d="M85.273 25.4418H74.0791V24.2588H79.4617V8.65837C77.7858 9.40759 76.0508 9.98429 74.2566 10.3885L73.9461 9.48645C76.1641 8.8161 78.1062 7.97816 79.7722 6.97264H80.7925V24.2588H85.273V25.4418Z" fill="black"/>
<path d="M107.936 18.7953L103.902 9.72659C103.501 8.78226 103.214 8.05348 103.04 7.54026C102.957 7.77634 102.685 8.50512 102.224 9.72659L98.1588 18.7953H107.936ZM97.6199 20.1348L95.1256 25.7084H93.5859L102.162 6.47788H103.963L112.539 25.7084H110.984L108.505 20.1348H97.6199Z" fill="black"/>
<path d="M116.727 25.7084H115.342V11.0815H116.727V25.7084ZM115.095 6.78582C115.095 6.20074 115.408 5.9082 116.034 5.9082C116.661 5.9082 116.979 6.20074 116.989 6.78582C116.999 7.06296 116.912 7.28365 116.727 7.44788C116.542 7.61211 116.312 7.69422 116.034 7.69422C115.757 7.69422 115.531 7.61211 115.357 7.44788C115.182 7.28365 115.095 7.06296 115.095 6.78582Z" fill="black"/>
<path d="M123.379 11.0815V14.3918C123.697 13.3448 124.302 12.4826 125.195 11.8052C126.088 11.1277 126.971 10.789 127.844 10.789C128.716 10.789 129.435 10.8198 129.999 10.8813L129.876 12.2055C129.373 12.1644 128.773 12.1439 128.075 12.1439C127.007 12.1439 126.063 12.5134 125.242 13.2524C124.42 13.9915 123.799 15.0539 123.379 16.4396V25.7084H121.993V11.0815H123.379Z" fill="black"/>
</svg>
