<svg width="135" height="32" viewBox="0 0 135 32" fill="none" xmlns="http://www.w3.org/2000/svg">
<g clip-path="url(#clip0_887_556)">
<path d="M41.9065 15.92L46.7731 24.9734H51.5331L41.9065 7.04004L32.2798 24.9734H37.0665L41.9065 15.92Z" fill="black"/>
<path d="M26.1067 20.7734L26.1201 7.01343H21.9067V24.9734H30.0267L32.2801 20.7734H26.1067Z" fill="black"/>
<path d="M10.0799 6.3733C8.17541 6.37066 6.31288 6.93301 4.72803 7.9892C3.14318 9.04539 1.90723 10.5479 1.17656 12.3068C0.4459 14.0656 0.253357 16.0016 0.623297 17.8699C0.993237 19.7381 1.90903 21.4547 3.25482 22.8023C4.6006 24.15 6.31588 25.0681 8.18363 25.4407C10.0514 25.8132 11.9877 25.6233 13.7475 24.8951C15.5073 24.1669 17.0116 22.933 18.07 21.3496C19.1283 19.7663 19.6933 17.9045 19.6933 16C19.6933 13.4491 18.6809 11.0026 16.8784 9.1976C15.0759 7.39263 12.6308 6.37683 10.0799 6.3733ZM10.0799 21.1866C9.05356 21.1893 8.04946 20.8873 7.19477 20.319C6.34007 19.7507 5.67321 18.9416 5.2786 17.9941C4.88398 17.0466 4.77937 16.0033 4.97799 14.9963C5.17661 13.9893 5.66953 13.0639 6.39437 12.3372C7.1192 11.6105 8.04335 11.1152 9.04983 10.914C10.0563 10.7127 11.0999 10.8147 12.0484 11.2068C12.9969 11.599 13.8077 12.2638 14.3782 13.117C14.9487 13.9703 15.2533 14.9736 15.2533 16C15.2498 17.3745 14.7022 18.6917 13.7303 19.6636C12.7583 20.6355 11.4411 21.1831 10.0666 21.1866H10.0799Z" fill="black"/>
<path d="M70.1198 9.33329C68.282 8.43389 66.2591 7.97726 64.2131 7.99995C61.7331 7.99995 60.2131 9.43995 60.2131 11.0666C60.2131 13.24 61.4131 13.88 65.4398 15.24C69.4665 16.6 71.2665 17.9066 71.2665 20.5733C71.2665 24.08 68.5331 25.3066 65.5331 25.3066C62.758 25.3289 60.0699 24.3381 57.9731 22.52L58.6131 21.52C60.5256 23.1823 62.9726 24.1005 65.5065 24.1066C68.4398 24.1066 69.9065 22.8933 69.9065 20.72C69.9065 18.5466 68.7998 17.6933 64.5731 16.2533C60.7731 14.9866 58.9198 14.2266 58.9198 11.1333C58.9198 8.63995 61.0131 6.81329 64.2531 6.81329C66.4534 6.80717 68.6253 7.30909 70.5998 8.27995L70.1198 9.33329Z" fill="black"/>
<path d="M74.5599 25.0266V23.8799H79.7866V8.73326C78.1622 9.45989 76.4694 10.0227 74.7333 10.4133L74.4399 9.53326C76.4177 8.96764 78.3136 8.14744 80.0799 7.09326H81.0799V23.8799H85.4399V25.0266H74.5599Z" fill="black"/>
<path d="M101.693 7.09326C106.373 7.09326 108.693 9.0666 108.693 13.0666C108.693 17.0666 106.373 18.9999 101.76 18.9999H97.4666V25.0266H96.1333V7.09326H101.693ZM101.693 17.7599C105.493 17.7599 107.4 16.1999 107.373 13.0533C107.347 9.90659 105.493 8.31993 101.667 8.31993H97.4666V17.7599H101.693Z" fill="black"/>
<path d="M113.467 14.48C113.752 13.5247 114.333 12.6846 115.126 12.0808C115.919 11.4769 116.883 11.1405 117.88 11.12C118.468 11.1116 119.056 11.1428 119.64 11.2133L119.52 12.44C118.813 12.44 118.347 12.44 117.853 12.44C115.907 12.44 114.267 13.7733 113.467 16.44V25.08H112.133V11.3866H113.467V14.48Z" fill="black"/>
<path d="M134.227 18.3201C134.227 22.6801 131.72 25.2934 127.56 25.2934C123.4 25.2934 120.894 22.6268 120.894 18.3201C120.894 14.0135 123.387 11.1201 127.56 11.1201C131.734 11.1201 134.227 13.8001 134.227 18.3201ZM132.894 18.3201C132.894 14.5068 130.867 12.2401 127.48 12.2401C124.094 12.2401 122.04 14.5068 122.04 18.3201C122.04 22.1335 124.04 24.1734 127.454 24.1734C130.867 24.1734 132.96 22.0001 132.96 18.3201H132.894Z" fill="black"/>
</g>
<defs>
<clipPath id="clip0_887_556">
<rect width="134.667" height="32" fill="white"/>
</clipPath>
</defs>
</svg>
