<svg width="54" height="38" viewBox="0 0 54 38" fill="none" xmlns="http://www.w3.org/2000/svg">
<rect x="0.6" y="16.5992" width="16" height="16" rx="8" transform="rotate(-90 0.6 16.5992)" fill="#F5F1E8" stroke="url(#paint0_linear_6952_13374)" stroke-width="0.8"/>
<rect x="18.9984" y="16.5992" width="16" height="16" rx="8" transform="rotate(-90 18.9984 16.5992)" fill="url(#paint1_linear_6952_13374)" stroke="url(#paint2_linear_6952_13374)" stroke-width="0.8"/>
<rect x="37.4008" y="16.5992" width="16" height="16" rx="8" transform="rotate(-90 37.4008 16.5992)" fill="url(#paint3_linear_6952_13374)" stroke="url(#paint4_linear_6952_13374)" stroke-width="0.8"/>
<rect x="0.6" y="36.5992" width="16" height="16" rx="8" transform="rotate(-90 0.6 36.5992)" fill="#0B0B0B" stroke="url(#paint5_linear_6952_13374)" stroke-width="0.8"/>
<rect x="18.9885" y="36.6091" width="16.0198" height="16.0198" rx="8.00991" transform="rotate(-90 18.9885 36.6091)" fill="url(#paint6_linear_6952_13374)"/>
<rect x="18.9885" y="36.6091" width="16.0198" height="16.0198" rx="8.00991" transform="rotate(-90 18.9885 36.6091)" fill="url(#paint7_linear_6952_13374)" fill-opacity="0.1"/>
<rect x="18.9885" y="36.6091" width="16.0198" height="16.0198" rx="8.00991" transform="rotate(-90 18.9885 36.6091)" fill="url(#paint8_linear_6952_13374)" fill-opacity="0.1"/>
<rect x="18.9885" y="36.6091" width="16.0198" height="16.0198" rx="8.00991" transform="rotate(-90 18.9885 36.6091)" stroke="url(#paint9_linear_6952_13374)" stroke-width="0.81982"/>
<defs>
<linearGradient id="paint0_linear_6952_13374" x1="8.6" y1="16.1992" x2="8.6" y2="31.3992" gradientUnits="userSpaceOnUse">
<stop stop-color="#ECE7E7"/>
<stop offset="1" stop-color="#F3EDE0"/>
</linearGradient>
<linearGradient id="paint1_linear_6952_13374" x1="26.9984" y1="16.1992" x2="26.9984" y2="31.3992" gradientUnits="userSpaceOnUse">
<stop stop-color="#91C9D2"/>
<stop offset="1" stop-color="#86C8D2"/>
</linearGradient>
<linearGradient id="paint2_linear_6952_13374" x1="26.9984" y1="16.1992" x2="26.9984" y2="32.0326" gradientUnits="userSpaceOnUse">
<stop stop-color="#C0E2E8"/>
<stop offset="0.9999" stop-color="#72BAC6"/>
</linearGradient>
<linearGradient id="paint3_linear_6952_13374" x1="45.4008" y1="16.1992" x2="45.4008" y2="31.3992" gradientUnits="userSpaceOnUse">
<stop stop-color="#F83B2F"/>
<stop offset="1" stop-color="#DC352A"/>
</linearGradient>
<linearGradient id="paint4_linear_6952_13374" x1="45.4008" y1="16.1992" x2="45.4008" y2="31.3992" gradientUnits="userSpaceOnUse">
<stop stop-color="#FFBBB7"/>
<stop offset="1" stop-color="#B40F04"/>
</linearGradient>
<linearGradient id="paint5_linear_6952_13374" x1="8.6" y1="36.1992" x2="8.6" y2="52.0326" gradientUnits="userSpaceOnUse">
<stop stop-color="#2B2B2B"/>
<stop offset="0.9999"/>
</linearGradient>
<linearGradient id="paint6_linear_6952_13374" x1="26.9984" y1="36.1992" x2="26.9984" y2="51.3992" gradientUnits="userSpaceOnUse">
<stop stop-color="#605B65"/>
<stop offset="1" stop-color="#504957"/>
</linearGradient>
<linearGradient id="paint7_linear_6952_13374" x1="24.3384" y1="41.7726" x2="29.9118" y2="45.5726" gradientUnits="userSpaceOnUse">
<stop stop-color="white" stop-opacity="0"/>
<stop offset="0.480563" stop-color="white"/>
<stop offset="1" stop-color="white" stop-opacity="0"/>
</linearGradient>
<linearGradient id="paint8_linear_6952_13374" x1="24.3384" y1="41.2659" x2="31.4318" y2="46.2059" gradientUnits="userSpaceOnUse">
<stop stop-color="white" stop-opacity="0"/>
<stop offset="0.46875" stop-color="white"/>
<stop offset="0.963542" stop-color="white" stop-opacity="0"/>
</linearGradient>
<linearGradient id="paint9_linear_6952_13374" x1="26.9984" y1="36.1992" x2="26.9984" y2="52.0326" gradientUnits="userSpaceOnUse">
<stop stop-color="#B0A6B9"/>
<stop offset="0.9999" stop-color="#443F49"/>
</linearGradient>
</defs>
</svg>
