<svg width="91" height="57" viewBox="0 0 91 57" fill="none" xmlns="http://www.w3.org/2000/svg">
<rect x="0.6" y="16.6031" width="16" height="16" rx="8" transform="rotate(-90 0.6 16.6031)" fill="#F5F1E8" stroke="url(#paint0_linear_6952_13386)" stroke-width="0.8"/>
<rect x="18.9885" y="16.613" width="16.0198" height="16.0198" rx="8.00991" transform="rotate(-90 18.9885 16.613)" fill="url(#paint1_linear_6952_13386)"/>
<rect x="18.9885" y="16.613" width="16.0198" height="16.0198" rx="8.00991" transform="rotate(-90 18.9885 16.613)" fill="url(#paint2_linear_6952_13386)" fill-opacity="0.1"/>
<rect x="18.9885" y="16.613" width="16.0198" height="16.0198" rx="8.00991" transform="rotate(-90 18.9885 16.613)" fill="url(#paint3_linear_6952_13386)" fill-opacity="0.1"/>
<rect x="18.9885" y="16.613" width="16.0198" height="16.0198" rx="8.00991" transform="rotate(-90 18.9885 16.613)" stroke="url(#paint4_linear_6952_13386)" stroke-width="0.81982"/>
<rect x="37.4008" y="16.6031" width="16" height="16" rx="8" transform="rotate(-90 37.4008 16.6031)" fill="url(#paint5_linear_6952_13386)" stroke="url(#paint6_linear_6952_13386)" stroke-width="0.8"/>
<rect x="55.5901" y="16.6091" width="16.0198" height="16.0198" rx="8.00991" transform="rotate(-90 55.5901 16.6091)" fill="url(#paint7_linear_6952_13386)"/>
<rect x="55.5901" y="16.6091" width="16.0198" height="16.0198" rx="8.00991" transform="rotate(-90 55.5901 16.6091)" fill="url(#paint8_linear_6952_13386)" fill-opacity="0.2"/>
<rect x="55.5901" y="16.6091" width="16.0198" height="16.0198" rx="8.00991" transform="rotate(-90 55.5901 16.6091)" fill="url(#paint9_linear_6952_13386)" fill-opacity="0.2"/>
<rect x="55.5901" y="16.6091" width="16.0198" height="16.0198" rx="8.00991" transform="rotate(-90 55.5901 16.6091)" stroke="url(#paint10_linear_6952_13386)" stroke-width="0.81982"/>
<rect x="73.9885" y="16.6091" width="16.0198" height="16.0198" rx="8.00991" transform="rotate(-90 73.9885 16.6091)" fill="url(#paint11_linear_6952_13386)" stroke="url(#paint12_linear_6952_13386)" stroke-width="0.81982"/>
<rect x="0.59009" y="56.4802" width="16.0198" height="16.0198" rx="8.00991" transform="rotate(-90 0.59009 56.4802)" fill="#0B0B0B" stroke="url(#paint13_linear_6952_13386)" stroke-width="0.81982"/>
<rect x="0.5" y="36.5762" width="16.2" height="16.2" rx="8.1" transform="rotate(-90 0.5 36.5762)" fill="url(#paint14_linear_6952_13386)" stroke="url(#paint15_linear_6952_13386)"/>
<rect x="18.9984" y="36.4762" width="16" height="16" rx="8" transform="rotate(-90 18.9984 36.4762)" fill="url(#paint16_linear_6952_13386)" stroke="url(#paint17_linear_6952_13386)" stroke-width="0.8"/>
<rect x="37.3909" y="36.4861" width="16.0198" height="16.0198" rx="8.00991" transform="rotate(-90 37.3909 36.4861)" fill="#3D3D3D" stroke="url(#paint18_linear_6952_13386)" stroke-width="0.81982"/>
<rect x="55.5901" y="36.4822" width="16.0198" height="16.0198" rx="8.00991" transform="rotate(-90 55.5901 36.4822)" fill="#0B0B0B"/>
<rect x="55.5901" y="36.4822" width="16.0198" height="16.0198" rx="8.00991" transform="rotate(-90 55.5901 36.4822)" fill="url(#paint19_linear_6952_13386)" fill-opacity="0.2"/>
<rect x="55.5901" y="36.4822" width="16.0198" height="16.0198" rx="8.00991" transform="rotate(-90 55.5901 36.4822)" fill="url(#paint20_linear_6952_13386)" fill-opacity="0.1"/>
<rect x="55.5901" y="36.4822" width="16.0198" height="16.0198" rx="8.00991" transform="rotate(-90 55.5901 36.4822)" stroke="url(#paint21_linear_6952_13386)" stroke-width="0.81982"/>
<rect x="73.9885" y="36.4822" width="16.0198" height="16.0198" rx="8.00991" transform="rotate(-90 73.9885 36.4822)" fill="url(#paint22_linear_6952_13386)"/>
<rect x="73.9885" y="36.4822" width="16.0198" height="16.0198" rx="8.00991" transform="rotate(-90 73.9885 36.4822)" fill="url(#paint23_linear_6952_13386)" fill-opacity="0.1"/>
<rect x="73.9885" y="36.4822" width="16.0198" height="16.0198" rx="8.00991" transform="rotate(-90 73.9885 36.4822)" fill="url(#paint24_linear_6952_13386)" fill-opacity="0.1"/>
<rect x="73.9885" y="36.4822" width="16.0198" height="16.0198" rx="8.00991" transform="rotate(-90 73.9885 36.4822)" stroke="url(#paint25_linear_6952_13386)" stroke-width="0.81982"/>
<defs>
<linearGradient id="paint0_linear_6952_13386" x1="8.6" y1="16.2031" x2="8.6" y2="31.4031" gradientUnits="userSpaceOnUse">
<stop stop-color="#ECE7E7"/>
<stop offset="1" stop-color="#F3EDE0"/>
</linearGradient>
<linearGradient id="paint1_linear_6952_13386" x1="26.9984" y1="16.2031" x2="26.9984" y2="31.4031" gradientUnits="userSpaceOnUse">
<stop stop-color="#605B65"/>
<stop offset="1" stop-color="#504957"/>
</linearGradient>
<linearGradient id="paint2_linear_6952_13386" x1="24.3384" y1="21.7765" x2="29.9118" y2="25.5765" gradientUnits="userSpaceOnUse">
<stop stop-color="white" stop-opacity="0"/>
<stop offset="0.480563" stop-color="white"/>
<stop offset="1" stop-color="white" stop-opacity="0"/>
</linearGradient>
<linearGradient id="paint3_linear_6952_13386" x1="24.3384" y1="21.2698" x2="31.4318" y2="26.2098" gradientUnits="userSpaceOnUse">
<stop stop-color="white" stop-opacity="0"/>
<stop offset="0.46875" stop-color="white"/>
<stop offset="0.963542" stop-color="white" stop-opacity="0"/>
</linearGradient>
<linearGradient id="paint4_linear_6952_13386" x1="26.9984" y1="16.2031" x2="26.9984" y2="32.0365" gradientUnits="userSpaceOnUse">
<stop stop-color="#B0A6B9"/>
<stop offset="0.9999" stop-color="#443F49"/>
</linearGradient>
<linearGradient id="paint5_linear_6952_13386" x1="45.4008" y1="16.2031" x2="45.4008" y2="31.4031" gradientUnits="userSpaceOnUse">
<stop stop-color="#F83B2F"/>
<stop offset="1" stop-color="#DC352A"/>
</linearGradient>
<linearGradient id="paint6_linear_6952_13386" x1="45.4008" y1="16.2031" x2="45.4008" y2="31.4031" gradientUnits="userSpaceOnUse">
<stop stop-color="#FFBBB7"/>
<stop offset="1" stop-color="#B40F04"/>
</linearGradient>
<linearGradient id="paint7_linear_6952_13386" x1="63.6" y1="16.1992" x2="63.6" y2="31.3992" gradientUnits="userSpaceOnUse">
<stop stop-color="#F0B0B3"/>
<stop offset="1" stop-color="#F1A3A6"/>
</linearGradient>
<linearGradient id="paint8_linear_6952_13386" x1="60.94" y1="21.7726" x2="66.5133" y2="25.5726" gradientUnits="userSpaceOnUse">
<stop stop-color="white" stop-opacity="0"/>
<stop offset="0.480563" stop-color="white"/>
<stop offset="1" stop-color="white" stop-opacity="0"/>
</linearGradient>
<linearGradient id="paint9_linear_6952_13386" x1="60.94" y1="21.2659" x2="68.0333" y2="26.2059" gradientUnits="userSpaceOnUse">
<stop stop-color="white" stop-opacity="0"/>
<stop offset="0.46875" stop-color="white"/>
<stop offset="0.963542" stop-color="white" stop-opacity="0"/>
</linearGradient>
<linearGradient id="paint10_linear_6952_13386" x1="63.6" y1="16.1992" x2="63.6" y2="32.0326" gradientUnits="userSpaceOnUse">
<stop stop-color="#FFD3D5"/>
<stop offset="0.9999" stop-color="#DD9194"/>
</linearGradient>
<linearGradient id="paint11_linear_6952_13386" x1="81.9984" y1="16.1992" x2="81.9984" y2="31.3992" gradientUnits="userSpaceOnUse">
<stop stop-color="#FDE26F"/>
<stop offset="1" stop-color="#FFDB44"/>
</linearGradient>
<linearGradient id="paint12_linear_6952_13386" x1="81.9984" y1="16.1992" x2="81.9984" y2="31.3992" gradientUnits="userSpaceOnUse">
<stop stop-color="#FFF5CA"/>
<stop offset="1" stop-color="#F4CD26"/>
</linearGradient>
<linearGradient id="paint13_linear_6952_13386" x1="8.6" y1="56.0703" x2="8.6" y2="71.9036" gradientUnits="userSpaceOnUse">
<stop stop-color="#2B2B2B"/>
<stop offset="0.9999"/>
</linearGradient>
<linearGradient id="paint14_linear_6952_13386" x1="8.6" y1="36.0762" x2="8.6" y2="51.2762" gradientUnits="userSpaceOnUse">
<stop stop-color="#464F26"/>
<stop offset="1" stop-color="#313817"/>
</linearGradient>
<linearGradient id="paint15_linear_6952_13386" x1="8.6" y1="36.0762" x2="8.6" y2="51.2762" gradientUnits="userSpaceOnUse">
<stop stop-color="#5C6638"/>
<stop offset="1" stop-color="#282B18"/>
</linearGradient>
<linearGradient id="paint16_linear_6952_13386" x1="26.9984" y1="36.0762" x2="26.9984" y2="51.2762" gradientUnits="userSpaceOnUse">
<stop stop-color="#91C9D2"/>
<stop offset="1" stop-color="#86C8D2"/>
</linearGradient>
<linearGradient id="paint17_linear_6952_13386" x1="26.9984" y1="36.0762" x2="26.9984" y2="51.9095" gradientUnits="userSpaceOnUse">
<stop stop-color="#C0E2E8"/>
<stop offset="0.9999" stop-color="#72BAC6"/>
</linearGradient>
<linearGradient id="paint18_linear_6952_13386" x1="45.4008" y1="36.0762" x2="45.4008" y2="51.2762" gradientUnits="userSpaceOnUse">
<stop stop-color="#7C7C7C"/>
<stop offset="1" stop-color="#050505"/>
</linearGradient>
<linearGradient id="paint19_linear_6952_13386" x1="60.1167" y1="40.5056" x2="67.875" y2="46.3639" gradientUnits="userSpaceOnUse">
<stop stop-color="#EAEAEA" stop-opacity="0"/>
<stop offset="0.480563" stop-color="white"/>
<stop offset="1" stop-color="white" stop-opacity="0"/>
</linearGradient>
<linearGradient id="paint20_linear_6952_13386" x1="60.94" y1="41.1389" x2="68.0333" y2="46.0789" gradientUnits="userSpaceOnUse">
<stop stop-color="white" stop-opacity="0"/>
<stop offset="0.46875" stop-color="white"/>
<stop offset="0.963542" stop-color="white" stop-opacity="0"/>
</linearGradient>
<linearGradient id="paint21_linear_6952_13386" x1="63.6" y1="36.0723" x2="63.6" y2="51.9056" gradientUnits="userSpaceOnUse">
<stop stop-color="#545454"/>
<stop offset="0.9999" stop-color="#2B2727"/>
</linearGradient>
<linearGradient id="paint22_linear_6952_13386" x1="81.9984" y1="36.0723" x2="81.9984" y2="51.2723" gradientUnits="userSpaceOnUse">
<stop stop-color="#212B3C"/>
<stop offset="1" stop-color="#1B2637"/>
</linearGradient>
<linearGradient id="paint23_linear_6952_13386" x1="79.3384" y1="41.6456" x2="84.9118" y2="45.4456" gradientUnits="userSpaceOnUse">
<stop stop-color="white" stop-opacity="0"/>
<stop offset="0.480563" stop-color="white"/>
<stop offset="1" stop-color="white" stop-opacity="0"/>
</linearGradient>
<linearGradient id="paint24_linear_6952_13386" x1="79.3384" y1="41.1389" x2="86.4318" y2="46.0789" gradientUnits="userSpaceOnUse">
<stop stop-color="white" stop-opacity="0"/>
<stop offset="0.46875" stop-color="white"/>
<stop offset="0.963542" stop-color="white" stop-opacity="0"/>
</linearGradient>
<linearGradient id="paint25_linear_6952_13386" x1="81.9984" y1="36.0723" x2="81.9984" y2="51.9056" gradientUnits="userSpaceOnUse">
<stop stop-color="#9BA1AB"/>
<stop offset="0.9999" stop-color="#0E1A2E"/>
</linearGradient>
</defs>
</svg>
