<svg width="124" height="64" viewBox="0 0 124 64" fill="none" xmlns="http://www.w3.org/2000/svg">
<rect x="1.24781" y="26.6609" width="25.3228" height="25.3228" rx="12.6614" transform="rotate(-90 1.24781 26.6609)" fill="url(#paint0_linear_105_371)" stroke="url(#paint1_linear_105_371)" stroke-width="1.23192"/>
<rect x="49.3386" y="26.6609" width="25.3228" height="25.3228" rx="12.6614" transform="rotate(-90 49.3386 26.6609)" fill="#F5F1E8" stroke="url(#paint2_linear_105_371)" stroke-width="1.23192"/>
<rect x="97.4294" y="26.6609" width="25.3228" height="25.3228" rx="12.6614" transform="rotate(-90 97.4294 26.6609)" fill="url(#paint3_linear_105_371)" stroke="url(#paint4_linear_105_371)" stroke-width="1.23192"/>
<rect x="25.2932" y="62.7527" width="25.3228" height="25.3228" rx="12.6614" transform="rotate(-90 25.2932 62.7527)" fill="#0B0B0B" stroke="url(#paint5_linear_105_371)" stroke-width="1.23192"/>
<rect x="73.5062" y="62.6305" width="25.0784" height="25.0784" rx="12.5392" transform="rotate(-90 73.5062 62.6305)" fill="url(#paint6_linear_105_371)"/>
<rect x="73.5062" y="62.6305" width="25.0784" height="25.0784" rx="12.5392" transform="rotate(-90 73.5062 62.6305)" fill="url(#paint7_linear_105_371)" fill-opacity="0.1"/>
<rect x="73.5062" y="62.6305" width="25.0784" height="25.0784" rx="12.5392" transform="rotate(-90 73.5062 62.6305)" fill="url(#paint8_linear_105_371)" fill-opacity="0.1"/>
<rect x="73.5062" y="62.6305" width="25.0784" height="25.0784" rx="12.5392" transform="rotate(-90 73.5062 62.6305)" stroke="url(#paint9_linear_105_371)" stroke-width="0.98751"/>
<defs>
<linearGradient id="paint0_linear_105_371" x1="13.9092" y1="26.0449" x2="13.9092" y2="50.1358" gradientUnits="userSpaceOnUse">
<stop stop-color="#91C9D2"/>
<stop offset="1" stop-color="#86C8D2"/>
</linearGradient>
<linearGradient id="paint1_linear_105_371" x1="13.9092" y1="26.0449" x2="13.9092" y2="51.1396" gradientUnits="userSpaceOnUse">
<stop stop-color="#C0E2E8"/>
<stop offset="0.9999" stop-color="#72BAC6"/>
</linearGradient>
<linearGradient id="paint2_linear_105_371" x1="62" y1="26.0449" x2="62" y2="50.1358" gradientUnits="userSpaceOnUse">
<stop stop-color="#D4CFCF"/>
<stop offset="1" stop-color="#F3EDE0"/>
</linearGradient>
<linearGradient id="paint3_linear_105_371" x1="110.091" y1="26.0449" x2="110.091" y2="50.1358" gradientUnits="userSpaceOnUse">
<stop stop-color="#F83B2F"/>
<stop offset="1" stop-color="#DC352A"/>
</linearGradient>
<linearGradient id="paint4_linear_105_371" x1="110.091" y1="26.0449" x2="110.091" y2="50.1358" gradientUnits="userSpaceOnUse">
<stop stop-color="#FFBBB7"/>
<stop offset="1" stop-color="#B40F04"/>
</linearGradient>
<linearGradient id="paint5_linear_105_371" x1="37.9546" y1="62.1367" x2="37.9546" y2="87.2314" gradientUnits="userSpaceOnUse">
<stop stop-color="#2B2B2B"/>
<stop offset="0.9999"/>
</linearGradient>
<linearGradient id="paint6_linear_105_371" x1="86.0455" y1="62.1367" x2="86.0455" y2="86.2276" gradientUnits="userSpaceOnUse">
<stop stop-color="#605B65"/>
<stop offset="1" stop-color="#504957"/>
</linearGradient>
<linearGradient id="paint7_linear_105_371" x1="81.8295" y1="70.9701" x2="90.6629" y2="76.9928" gradientUnits="userSpaceOnUse">
<stop stop-color="white" stop-opacity="0"/>
<stop offset="0.480563" stop-color="white"/>
<stop offset="1" stop-color="white" stop-opacity="0"/>
</linearGradient>
<linearGradient id="paint8_linear_105_371" x1="81.8295" y1="70.167" x2="93.072" y2="77.9966" gradientUnits="userSpaceOnUse">
<stop stop-color="white" stop-opacity="0"/>
<stop offset="0.46875" stop-color="white"/>
<stop offset="0.963542" stop-color="white" stop-opacity="0"/>
</linearGradient>
<linearGradient id="paint9_linear_105_371" x1="86.0455" y1="62.1367" x2="86.0455" y2="87.2314" gradientUnits="userSpaceOnUse">
<stop stop-color="#B0A6B9"/>
<stop offset="0.9999" stop-color="#443F49"/>
</linearGradient>
</defs>
</svg>
